<svg width="27" height="27" viewBox="0 0 27 27" fill="none" xmlns="http://www.w3.org/2000/svg">
<path id="Vector" d="M13.1723 26.4002C12.5531 26.4034 11.9394 26.283 11.3673 26.0461C10.7951 25.8092 10.276 25.4606 9.84016 25.0206L1.38011 16.5437C0.496288 15.6569 0 14.4557 0 13.2035C0 11.9512 0.496288 10.7501 1.38011 9.86318L9.84016 1.38633C10.277 0.946971 10.7964 0.598311 11.3684 0.360395C11.9404 0.122479 12.5538 0 13.1733 0C13.7928 0 14.4062 0.122479 14.9782 0.360395C15.5503 0.598311 16.0696 0.946971 16.5065 1.38633L21.9484 6.84635L12.9148 15.9031L10.489 13.4641L17.0925 6.84635L14.0744 3.82324C13.9545 3.70386 13.8122 3.60924 13.6558 3.5448C13.5011 3.48123 13.3353 3.4492 13.1681 3.45059C13.0008 3.44962 12.835 3.48209 12.6805 3.54608C12.5259 3.61007 12.3857 3.70431 12.2681 3.82324L3.81431 12.3022C3.69425 12.4216 3.59956 12.564 3.53594 12.7209C3.4729 12.8766 3.44022 13.0428 3.43966 13.2108C3.44002 13.3781 3.47272 13.5437 3.53594 13.6986C3.59956 13.8555 3.69425 13.9979 3.81431 14.1173L12.2723 22.5983C12.3923 22.717 12.5346 22.8109 12.6909 22.8747C13.0039 23.0002 13.3532 23.0002 13.6662 22.8747C13.8222 22.8102 13.9643 22.7164 14.0848 22.5983L22.5344 14.1152C22.773 13.8751 22.907 13.5504 22.907 13.2118C22.907 12.8733 22.773 12.5485 22.5344 12.3085L22.0342 11.806L24.4663 9.367L24.9686 9.87155C25.8519 10.7587 26.3479 11.9598 26.3479 13.2118C26.3479 14.4639 25.8519 15.665 24.9686 16.5521L16.5107 25.029C16.0751 25.4685 15.5567 25.8171 14.9854 26.0547C14.4141 26.2922 13.8014 26.4139 13.1827 26.4128L13.1723 26.4002Z" fill="#1B1B1B"/>
</svg>
