<svg width="120" height="32" viewBox="0 0 120 32" fill="none" xmlns="http://www.w3.org/2000/svg">
<g id="entire_logo_black 1" clip-path="url(#clip0_4_1843)">
<path id="Vector" d="M13.3064 30.6422C12.6872 30.6454 12.0736 30.525 11.5014 30.2881C10.9293 30.0512 10.4101 29.7026 9.97431 29.2626L1.51426 20.7857C0.630443 19.8988 0.134155 18.6977 0.134155 17.4454C0.134155 16.1932 0.630443 14.992 1.51426 14.1052L9.97431 5.62831C10.4112 5.18895 10.9305 4.84029 11.5026 4.60237C12.0746 4.36445 12.688 4.24197 13.3075 4.24197C13.927 4.24197 14.5404 4.36445 15.1124 4.60237C15.6844 4.84029 16.2038 5.18895 16.6406 5.62831L22.0825 11.0883L13.049 20.1451L10.6232 17.7061L17.2267 11.0883L14.2085 8.06522C14.0886 7.94583 13.9464 7.85122 13.7899 7.78677C13.6353 7.72321 13.4694 7.69118 13.3022 7.69256C13.135 7.69159 12.9692 7.72406 12.8146 7.78805C12.6601 7.85205 12.5199 7.94628 12.4022 8.06522L3.94846 16.5442C3.82841 16.6635 3.73372 16.806 3.67009 16.9629C3.60706 17.1185 3.57438 17.2848 3.57381 17.4528C3.57418 17.6201 3.60687 17.7857 3.67009 17.9406C3.73372 18.0975 3.82841 18.2399 3.94846 18.3593L12.4064 26.8403C12.5265 26.959 12.6687 27.0529 12.825 27.1167C13.138 27.2422 13.4874 27.2422 13.8004 27.1167C13.9563 27.0522 14.0984 26.9584 14.219 26.8403L22.6686 18.3572C22.9072 18.1171 23.0411 17.7923 23.0411 17.4538C23.0411 17.1153 22.9072 16.7905 22.6686 16.5504L22.1683 16.048L24.6004 13.609L25.1028 14.1135C25.9861 15.0007 26.482 16.2017 26.482 17.4538C26.482 18.7059 25.9861 19.9069 25.1028 20.7941L16.6448 29.2709C16.2093 29.7104 15.6908 30.0591 15.1196 30.2966C14.5483 30.5342 13.9356 30.6559 13.3169 30.6548L13.3064 30.6422Z" fill="#1B1B1B"/>
<path id="Vector_2" d="M116.07 4.44545V3.89484H113.448V4.44545H114.442V7.22989H115.07V4.45382L116.07 4.44545ZM116.51 7.22151H117.111V4.69667H117.125L117.837 7.22151H118.517L119.229 4.69667H119.245V7.22989H119.861V3.90321H118.919L118.191 6.39455L117.454 3.90321H116.52L116.51 7.22151Z" fill="#1B1B1B"/>
<path id="Vector_3" d="M44.4069 27.303C38.829 27.303 35.0741 23.2729 35.0741 17.3564C35.0741 11.6913 38.9755 7.58997 44.3693 7.58997C50.9267 7.58997 53.16 12.8239 53.2291 17.7542V18.4158H38.4523C38.7474 22.1842 41.079 24.4097 44.3128 24.4097C46.7511 24.4097 48.796 23.4634 49.4512 21.2484H52.9256C51.8268 25.1989 48.6558 27.303 44.4069 27.303ZM49.6981 15.6858C49.4051 12.5622 47.6553 10.4163 44.34 10.4163C41.0246 10.4163 38.9818 12.5559 38.5067 15.6858H49.6981Z" fill="#1B1B1B"/>
<path id="Vector_4" d="M54.9537 8.06521H58.4533V11.551C59.4747 9.37159 61.1889 7.63184 64.094 7.63184C69.0545 7.63184 70.9131 10.8224 70.9131 14.7835V26.834H67.4136V15.244C67.4136 12.0116 66.0929 10.5963 63.5142 10.5963C60.8142 10.5963 58.491 12.8825 58.491 17.7479V26.8235H54.9642L54.9537 8.06521Z" fill="#1B1B1B"/>
<path id="Vector_5" d="M79.9718 24.0035H81.2925V26.834H79.5323C75.7062 26.8738 74.128 24.619 74.128 21.5666V10.8894H71.2941V8.06522H74.128V3.70223L77.5564 2.13834V8.05894H81.2004V10.8915H77.5857V21.2756C77.5753 23.0237 78.4439 24.0035 79.9718 24.0035Z" fill="#1B1B1B"/>
<path id="Vector_6" d="M82.5273 8.06519H86.0583V26.834H82.5273V8.06519ZM82.6027 4.65059V0.913574H86.3555V4.65059H82.6027Z" fill="#1B1B1B"/>
<path id="Vector_7" d="M92.3897 11.7687C93.3336 9.04708 95.1922 7.95633 98.0409 7.95633V11.306C97.5751 11.3165 97.1111 11.3648 96.6532 11.4505C94.5371 11.7771 92.4211 12.7569 92.4211 18.0641V26.857H88.8943V8.06938H92.3959L92.3897 11.7687Z" fill="#1B1B1B"/>
<path id="Vector_8" d="M107.01 27.303C101.43 27.303 97.6768 23.2729 97.6768 17.3564C97.6768 11.6913 101.576 7.58997 106.97 7.58997C113.534 7.58997 115.761 12.8239 115.83 17.7542V18.4158H101.065C101.358 22.1842 103.69 24.4097 106.926 24.4097C109.366 24.4097 111.407 23.4634 112.064 21.2484H115.528C114.442 25.1989 111.271 27.303 107.01 27.303ZM112.299 15.6858C112.006 12.5622 110.258 10.4163 106.941 10.4163C103.623 10.4163 101.582 12.5559 101.107 15.6858H112.299Z" fill="#1B1B1B"/>
</g>
<defs>
<clipPath id="clip0_4_1843">
<rect width="120" height="30.3448" fill="white" transform="translate(0 0.827576)"/>
</clipPath>
</defs>
</svg>
